<svg width="734" height="640" viewBox="0 0 734 640" fill="none" xmlns="http://www.w3.org/2000/svg" xmlns:xlink="http://www.w3.org/1999/xlink">
<rect width="734" height="640" fill="url(#pattern0)"/>
<defs>
<pattern id="pattern0" patternContentUnits="objectBoundingBox" width="1" height="1">
<use xlink:href="#image0_1_86" transform="translate(-0.00408719) scale(0.0013624 0.0015625)"/>
</pattern>
<image id="image0_1_86" width="740" height="640" xlink:href="img/home.png"/>
</defs>
<path d="M222 530.783L442.8 538.899L512 525V547.014L443.5 567L222 555.841V530.783Z" fill="#3595F6" fill-opacity="0.75"/>
<path d="M223 530V505L443.3 508.3L513 505V525L443.7 538L223 530Z" fill="#3595F6" fill-opacity="0.75"/>
<path d="M223 503.833V478H444H513V501.767L445 509L223 503.833Z" fill="#3595F6" fill-opacity="0.75"/>
<path d="M223 479V453.739L444.3 450L512 456.77V479H444" fill="#3595F6" fill-opacity="0.75"/>
<path d="M223 453.028V427.269L444.5 424L513 434.898V456L444 449.362L223 453.028Z" fill="#3595F6" fill-opacity="0.75"/>
<path d="M222 425.756V402.217L443 390L514 412.844V434L443 421.783L222 425.756Z" fill="#3595F6" fill-opacity="0.75"/>
<path d="M222 403.886V378.531L444.2 362L514 391.006V412L443.7 389.992L222 403.886Z" fill="#3595F6" fill-opacity="0.75"/>
<path d="M222 378.853V353.548L444.5 333L514 370.047V391L442 361.949L222 378.853Z" fill="#3595F6" fill-opacity="0.75"/>
<path d="M222 352.405V327.565L445 302L514 347.54V370L444.7 330.67L222 352.405Z" fill="#3595F6" fill-opacity="0.75"/>
<path d="M222 327.391V302.621L444.5 273L514 325.636V347L443.7 303.343L222 327.391Z" fill="#3595F6" fill-opacity="0.75"/>
<path d="M221 303.165V278.253L443.3 244L514 305.552V326L444 273.375L221 303.165Z" fill="#3595F6" fill-opacity="0.75"/>
<path d="M222 276.694V252.412L443.2 217L513 281.753V303L444.3 244.014L222 276.694Z" fill="#3595F6" fill-opacity="0.75"/>
<path d="M222 252.692V227.418L444.3 189L513 260.073V281L444 216.297L222 252.692Z" fill="#3595F6" fill-opacity="0.75"/>
<path d="M222 226.227V201.399L442.8 158L513 236.456V259L444 186.205L222 226.227Z" fill="#3595F6" fill-opacity="0.75"/>
<path d="M223 201.676V176.444L443 128L513 213.787V237L442.3 156.966L223 201.676Z" fill="#3595F6" fill-opacity="0.75"/>
<path d="M222 176.67V151.452L441.8 99L513 192.103V215L443.3 127.95L222 176.67Z" fill="#3595F6" fill-opacity="0.75"/>
<path d="M222 151.576V125.301L444 68L513 170.778V192L443.7 99.3284L222 151.576Z" fill="#3595F6" fill-opacity="0.75"/>

</svg>
